<svg width="1869" height="1869" viewBox="0 0 1869 1869" fill="none" xmlns="http://www.w3.org/2000/svg">
<g clip-path="url(#clip0_5_3)">
<path d="M1248.81 531.152C1248.53 531.199 1248.12 531.268 1247.62 531.351C1237.9 532.96 1179.1 542.029 1119.81 519.453C1094.7 509.89 1103.27 507.506 1047.33 474.256C981.755 435.273 964.926 435.546 960.042 417.369C950.292 381.073 1002.36 324.015 1036.82 327.772C1045.9 328.761 1055.61 334.168 1070.73 330.502C1074.05 329.696 1088.58 326.169 1095.67 314.141C1101.99 303.411 1096.64 295.671 1099.18 286.871C1105.85 263.772 1161.48 252.244 1210.25 260.389C1238.3 265.073 1260.12 277.863 1302.6 303.251C1376.56 347.439 1413.54 369.533 1421.85 403.384C1429.72 435.468 1410.82 449.293 1424.57 483.638C1437.37 515.618 1457.7 513.482 1464.7 539.352C1475.96 580.982 1434.17 626.671 1416.76 645.704C1397.67 666.571 1379.42 678.024 1355.18 693.228C1324.76 712.312 1309.55 721.853 1291.27 720.883C1258.11 719.122 1159.6 725.114 1158.31 697.687C1157.83 687.409 1038.35 695.825 1097.18 585.164C1104.4 571.591 1245.77 586.089 1247.63 578.292" fill="#2F2E41"/>
<path d="M1306.02 601.965L1407.64 753.491L1115.95 812.461L1134.53 622.756L1306.02 601.965Z" fill="#FFB6B6"/>
<path opacity="0.1" d="M1306.02 601.965L1407.64 753.491L1115.95 812.461L1134.53 622.756L1306.02 601.965Z" fill="black"/>
<path d="M1094.1 714.178L1408.71 701.073L1548.53 777.516L1541.98 1268.93L1688.36 1546.31L949.907 1406.53L1006.71 1196.86L980.493 755.675L1094.1 714.178Z" fill="#22C55E"/>
<path d="M8.47268 1668.84C-1.57134 1653.01 -2.75751 1633.46 5.30029 1616.53L125.04 1365.02C133.977 1346.25 153.188 1334.12 173.983 1334.12H1686.39C1706.61 1334.12 1725 1345.24 1734.39 1363.14L1862.74 1607.71C1871.61 1624.62 1871.02 1644.48 1861.18 1660.83C1851.33 1677.19 1834.05 1687 1814.95 1687.07L54.4555 1694H54.2351C35.5722 1694 18.476 1684.61 8.4727 1668.84H8.47268Z" fill="white"/>
<path d="M8.47268 1668.84C-1.57134 1653.01 -2.75751 1633.46 5.30029 1616.53L125.04 1365.02C133.977 1346.25 153.188 1334.12 173.983 1334.12H1686.39C1706.61 1334.12 1725 1345.24 1734.39 1363.14L1862.74 1607.71C1871.61 1624.62 1871.02 1644.48 1861.18 1660.83C1851.33 1677.19 1834.05 1687 1814.95 1687.07L54.4555 1694H54.2351C35.5722 1694 18.476 1684.61 8.4727 1668.84H8.47268ZM173.983 1339.81C155.371 1339.81 138.176 1350.67 130.178 1367.47L10.4376 1618.97C3.2252 1634.12 4.28636 1651.63 13.2766 1665.79C22.2308 1679.91 37.5306 1688.31 54.2361 1688.31H54.4333L1814.93 1681.38C1832.02 1681.32 1847.49 1672.54 1856.3 1657.9C1865.12 1643.26 1865.64 1625.49 1857.7 1610.36L1729.35 1365.78C1720.95 1349.76 1704.49 1339.81 1686.39 1339.81H173.983H173.983Z" fill="#3F3D56"/>
<path d="M1545.59 1597.85L921.455 1554.95C912.24 1554.32 904.891 1548.11 902.733 1539.13C900.574 1530.16 904.297 1521.28 912.216 1516.53L1050.23 1433.75C1053.73 1431.65 1057.75 1430.63 1061.83 1430.82L1601.7 1455.36C1608.83 1455.68 1615.21 1459.57 1618.75 1465.78C1622.29 1471.98 1622.4 1479.45 1619.05 1485.76L1565.3 1586.9C1561.69 1593.69 1554.62 1597.9 1547.01 1597.9C1546.54 1597.9 1546.06 1597.88 1545.59 1597.85V1597.85Z" fill="#3F3D56"/>
<path d="M916.043 1529.93L1537.61 1572.52L1586.77 1466.59L1053.8 1445.69L916.043 1529.93Z" fill="white"/>
<path d="M1221.91 653.007C1325.07 653.007 1408.69 569.409 1408.69 466.286C1408.69 363.164 1325.07 279.566 1221.91 279.566C1118.75 279.566 1035.13 363.164 1035.13 466.286C1035.13 569.409 1118.75 653.007 1221.91 653.007Z" fill="#FFB6B6"/>
<path d="M1282.07 478.369C1281.8 478.416 1281.39 478.486 1280.89 478.568C1271.16 480.177 1212.36 489.247 1153.08 466.671C1127.96 457.107 1136.53 454.723 1080.6 421.473C1015.02 382.491 998.191 382.763 993.307 364.586C983.556 328.29 1035.62 271.232 1070.09 274.989C1079.16 275.978 1088.88 281.386 1103.99 277.719C1107.31 276.913 1121.85 273.387 1128.93 261.359C1135.26 250.629 1129.9 242.888 1132.44 234.088C1139.12 210.989 1194.74 199.461 1243.51 207.606C1271.56 212.291 1293.38 225.08 1335.87 250.468C1409.82 294.656 1446.8 316.751 1455.11 350.601C1462.99 382.686 1444.08 396.51 1457.83 430.856C1470.63 462.835 1490.97 460.699 1497.97 486.569C1509.23 528.199 1467.43 573.889 1450.02 592.921C1430.94 613.788 1412.68 625.241 1388.45 640.445C1358.03 659.529 1342.82 669.071 1324.53 668.1C1291.38 666.34 1258.4 636.304 1257.12 608.877C1256.64 598.599 1260.93 595.516 1271.54 560.181C1275.96 545.459 1279.03 533.306 1280.9 525.509" fill="#2F2E41"/>
<path d="M1410.09 1478.77C1422.11 1479.25 1431.25 1490.01 1431.91 1501.67C1432.6 1513.77 1424.18 1524.92 1414.07 1530.69C1402.22 1537.44 1387.43 1538.52 1374.09 1537.36C1362.09 1536.31 1349.04 1532.58 1341.32 1522.68C1334.82 1514.34 1332.43 1501.75 1337.96 1492.29C1343.43 1482.91 1355.09 1480.32 1364.83 1484.08C1375.15 1488.07 1381.63 1497.44 1381.7 1508.53C1381.77 1520.81 1374.67 1532.16 1364.71 1538.95C1353.97 1546.28 1340.45 1548.63 1327.67 1548.6C1313.74 1548.57 1299.87 1545.65 1287.05 1540.22C1275.05 1535.14 1263.05 1527.8 1254.47 1517.84C1246.42 1508.5 1241.6 1495.54 1246.07 1483.42C1249.73 1473.49 1258.99 1467.4 1269.59 1468.24C1279.3 1469.01 1289.12 1474.64 1293.42 1483.6C1298.28 1493.72 1296.1 1505.86 1289.92 1514.9C1282.77 1525.34 1271.48 1531.21 1258.95 1532.06C1245.6 1532.96 1232.39 1528.22 1221.41 1520.89C1211.25 1514.11 1202.32 1505.42 1191.4 1499.78C1186.15 1497.06 1180.44 1495.33 1174.49 1495.34C1166.92 1495.35 1159.64 1497.84 1152.28 1499.28C1146.04 1500.5 1139.61 1501.21 1133.45 1499.22C1128.18 1497.51 1123.25 1494.39 1119.93 1489.9C1116.79 1485.66 1115.68 1480.35 1117.46 1475.31C1118.86 1471.36 1125.19 1473.06 1123.78 1477.05C1120.53 1486.26 1131.69 1493.03 1139.5 1493.87C1145.42 1494.51 1151.54 1492.8 1157.26 1491.47C1163.21 1490.07 1169.3 1488.65 1175.46 1488.8C1197.29 1489.34 1211.72 1507.99 1229.31 1518.1C1247.81 1528.74 1274.9 1529.48 1286.23 1508.34C1290.35 1500.67 1291.2 1490.46 1285.54 1483.29C1280.83 1477.31 1272.47 1473.74 1264.89 1474.89C1255.37 1476.35 1250.62 1485.42 1250.97 1494.43C1251.39 1505.46 1259.08 1514.42 1267.28 1521.03C1285.54 1535.73 1309.75 1543.22 1333.11 1541.91C1344.06 1541.29 1355.71 1538.44 1364.22 1531.15C1371.57 1524.85 1376.59 1514.6 1374.82 1504.79C1373.29 1496.29 1366.17 1489.85 1357.56 1488.99C1348.75 1488.12 1341.87 1494.37 1341.47 1503.17C1341.03 1513.06 1346.91 1521.32 1355.43 1525.82C1365.08 1530.93 1376.78 1531.56 1387.48 1531C1398.83 1530.41 1410.67 1527.42 1418.61 1518.78C1425.39 1511.4 1427.96 1500.46 1421.72 1491.93C1418.96 1488.16 1414.81 1485.51 1410.09 1485.32C1405.89 1485.16 1405.86 1478.6 1410.09 1478.77V1478.77Z" fill="#22C55E"/>
<path d="M1111.37 1471.75L1114.71 1451.1L1300.14 1096.8C1303.21 1090.93 1310.49 1088.65 1316.36 1091.72C1322.23 1094.79 1324.51 1102.07 1321.44 1107.94L1136.09 1462.08L1120.94 1476.75C1119.14 1478.48 1116.56 1478.85 1114.35 1477.7C1112.15 1476.54 1110.98 1474.21 1111.37 1471.75H1111.37Z" fill="#3F3D56"/>
<path d="M1237.77 1246.34C1258.69 1250.28 1278.36 1259.17 1295.14 1272.26L1296.08 1272.47L1296.27 1271.53L1498.37 1303.17L1483.73 1034.45L1636.89 950.589L1600.69 1404.82C1592.85 1433.82 1562.73 1450.77 1533.86 1442.41L1276.6 1368.44L1277.25 1365.27L1276.35 1365.03C1255.79 1370.58 1234.2 1371.11 1213.39 1366.6C1161.18 1356.04 1124.31 1320.55 1131.04 1287.34C1137.77 1254.12 1185.54 1235.77 1237.77 1246.34V1246.34Z" fill="#FFB6B6"/>
<path d="M1375.94 825.565L1548.53 777.516C1548.53 777.516 1639.2 844.13 1650.12 916.204C1651.42 924.776 1655.03 1324.07 1651.22 1334.45C1622.98 1411.37 1467.7 1288.59 1467.7 1288.59L1375.94 825.565Z" fill="#22C55E"/>
<path d="M627.294 1543.23L609.401 1527.89H609.4C606.737 1525.61 603.498 1524.1 600.034 1523.52L201.352 1457.09C192.252 1455.58 185.531 1449.01 183.809 1439.95C182.088 1430.89 185.933 1422.31 193.844 1417.56L336.075 1332.25C340.829 1329.4 346.423 1328.5 351.835 1329.73L857.332 1443.9C867.159 1446.11 873.717 1454.05 874.039 1464.12C874.362 1474.19 868.324 1482.53 858.656 1485.37L647.301 1547.51C645.295 1548.11 643.25 1548.39 641.222 1548.39C636.178 1548.39 631.24 1546.61 627.294 1543.23V1543.23Z" fill="#3F3D56"/>
<path d="M435.298 1047.79C455.06 1055.7 472.639 1068.23 486.565 1084.33L487.452 1084.71L487.821 1083.83L679.964 1153.98L885.12 821.913L998.536 892.181L760.664 1273.51C747.354 1300.45 714.528 1311.24 687.819 1297.46L449.754 1175.1L450.997 1172.12L450.161 1171.71C428.917 1173.16 407.632 1169.52 388.088 1161.06C338.912 1140.6 309.615 1098.64 322.649 1067.36C335.683 1036.07 386.108 1027.31 435.298 1047.79L435.298 1047.79Z" fill="#FFB6B6"/>
<path d="M1105.2 881.862L1014.46 746.21C1014.46 746.21 906.475 767.576 861.994 825.339C856.434 832.56 665.446 1109.46 664.215 1121.55C655.602 1206.14 875.109 1245.77 875.109 1245.77L1105.2 881.862V881.862Z" fill="#22C55E"/>
<path d="M617.419 1547.3L160.407 1484.16C145.111 1482.04 132.487 1471.09 128.244 1456.24L23.28 1088.99C19.7233 1076.54 22.3785 1063.65 30.565 1053.62C38.7515 1043.59 50.8466 1038.41 63.7621 1039.4L524.202 1074.66C540.86 1075.94 554.843 1087.66 559 1103.84L660.535 1498.98C663.775 1511.59 660.535 1524.91 651.867 1534.63C644.403 1543 633.818 1547.67 622.784 1547.67C621.005 1547.67 619.212 1547.55 617.419 1547.3V1547.3Z" fill="#3F3D56"/>
<path d="M515.551 795.06C518.222 797.997 527.916 795.004 547.195 788.9C561.85 784.259 564.107 782.57 565.501 781.359C570.402 777.103 571.686 772.627 576.541 752.852C585.253 717.361 585.523 713.836 589.997 706.305C591.537 703.711 595.429 697.524 594.48 696.758C593.505 695.97 589.293 702.415 581.509 704.85C573.923 707.223 570.508 703.421 564.032 704.39C555.66 705.641 550.682 713.591 542.873 726.459C535.959 737.855 535.089 742.439 525.395 765.082C522.648 771.495 520.437 776.46 518.739 780.383C499.705 798.142 480.828 816.135 462.122 834.285C462.483 833.734 462.822 833.214 463.117 832.762C471.402 820.044 472.528 813.226 472.408 808.117C472.214 799.84 468.259 793.536 460.358 781.265C452.616 769.24 445.281 761.305 436.442 751.837C424.857 739.426 419.064 733.22 416.757 733.629C400.28 736.544 395.874 848.701 416.605 868.76C413.695 870.838 411.285 873.015 409.543 875.156C391.796 855.459 361.396 833.452 327.719 830.743C306.957 829.072 295.498 835.585 291.935 837.822C275.467 848.162 265.675 868.858 270.593 874.697C275.179 880.143 288.423 867.764 314.38 868.445C332.492 868.921 346.639 875.49 355.039 879.39C372.658 887.57 379.102 895.613 392.093 901.123C386.003 906.139 381.178 912.4 378.149 918.24C377.099 919.321 376.054 920.408 375.005 921.491C361.601 913.94 346.506 908.4 330.684 907.127C309.922 905.457 298.463 911.97 294.9 914.207C283.802 921.176 275.759 932.837 273.185 941.495C271.502 941.833 269.945 942.219 268.52 942.635C263.489 931.268 248.516 919.281 234.594 913.24C210.629 902.841 179.499 905.597 176.168 915.486C176.062 915.801 176.036 916.112 175.989 916.424C178.616 895.235 182.182 874.194 186.639 853.306C186.79 853.902 186.98 854.506 187.233 855.14C193.148 869.994 209.134 884.251 230.924 891.647C248.026 897.452 255.19 894.444 257.009 893.603C258.747 892.8 266.255 889.578 268.095 883.172C271.505 871.296 250.619 836.196 237.445 847.969C195.117 885.796 189.308 855.166 187.364 850.01C190.963 833.497 195.105 817.078 199.751 800.752C199.831 800.852 199.901 800.95 199.984 801.051C209.232 812.263 227.029 820.162 247.943 820.511C264.357 820.784 269.721 816.191 271.062 814.958C272.343 813.78 277.946 808.907 277.757 802.852C277.408 791.626 257.431 782.483 241.448 780.898C226.719 779.437 210.858 783.945 202.991 789.654C206.649 777.428 210.584 765.256 214.781 753.136C225.53 757.525 240.757 756.935 255.715 750.251C268.051 744.738 270.45 739.446 271.02 738.059C271.565 736.735 274.044 731.149 271.794 726.7C267.622 718.451 249.539 718.59 237.068 722.974C231.932 724.78 227.05 727.558 222.866 730.699C230.304 710.834 238.412 691.111 247.132 671.533L238.393 669.349C227.254 694.358 217.542 719.694 209.195 745.31C208.157 737.797 205.557 729.794 202.132 723.292C192.063 704.173 170.556 689.829 163.282 694.483C161.827 695.414 161.215 696.93 160.661 698.735C156.203 713.259 159.56 733.332 171.302 751.774C180.518 766.248 187.616 768.28 189.464 768.739C191.025 769.127 197.052 770.791 202.006 768.648C198.674 780.06 195.594 791.521 192.785 803.034C189.405 794.645 182.744 785.706 175.7 779.524C159.455 765.271 134.238 759.568 129.111 766.515C128.086 767.904 128.057 769.539 128.185 771.423C129.219 786.58 139.537 804.124 157.1 817.146C170.886 827.368 178.241 826.727 180.132 826.495C181.245 826.358 184.608 826.024 187.851 824.558C184.841 838.546 182.21 852.602 179.935 866.717C175.386 850.927 159.935 831.228 145.352 837.495C119.474 848.616 89.0558 831.533 85.7077 839.003C84.8367 840.947 85.5578 842.951 86.3915 845.126C93.0956 862.625 111.612 879.581 137.036 888.585C156.99 895.652 165.432 892.236 167.577 891.279C168.999 890.645 173.691 888.685 177.187 885.048C174.674 903.185 172.748 921.415 171.391 939.724C165.996 927.948 150.799 915.541 136.573 909.144C111.618 897.924 78.9784 900.382 75.3535 910.693C74.6286 912.755 75.2004 914.745 76.0554 916.977C82.9372 934.939 101.941 952.342 128.037 961.583C148.518 968.837 157.182 965.331 159.385 964.349C160.993 963.631 166.676 961.258 170.299 956.751C169.835 965.215 169.477 973.694 169.25 982.188C169.185 984.608 169.147 987.027 169.1 989.446C168.807 989.921 168.55 990.408 168.379 990.916C167.68 992.991 168.156 994.988 168.977 997.169C168.959 998.706 168.949 1000.24 168.939 1001.78C164.373 997.641 158.927 991.42 152.376 982.555C146.465 974.556 140.851 980.425 137.245 987.236C131.593 985.977 126.201 986.756 121.96 990.716C93.5235 1017.27 61.6289 1003.18 61.1776 1011.1C61.0475 1013.39 62.2716 1015.2 63.8147 1017.17C76.231 1033.03 100.606 1044.6 129.564 1045.82C152.291 1046.77 159.881 1040.6 161.782 1038.94C162.45 1038.35 163.947 1037.1 165.568 1035.32C166.869 1036.36 168.136 1037.31 169.407 1038.17C169.906 1053.37 170.801 1068.55 172.127 1083.71C171.049 1083.8 170.018 1083.98 169.25 1084.06C158.241 1085.18 154.532 1070.33 137.902 1064.91C132.379 1063.11 121.74 1061.14 116.133 1064.91C115.325 1065.45 112.57 1067.49 108.296 1069.26C105.769 1070.31 103.839 1070.79 103.071 1071C96.248 1072.87 89.9284 1077.99 85.656 1081.45C77.6242 1087.95 73.6088 1091.21 71.7233 1097.12C71.1302 1098.98 69.4612 1104.21 71.7233 1109.3C72.7922 1111.71 75.273 1115.29 84.785 1118.88C90.4384 1121.01 106.928 1127.23 126.582 1120.62C131.058 1119.11 127.641 1119.65 144.868 1111.04C158.422 1104.27 166.348 1101.03 167.508 1094.5C167.916 1092.21 167.505 1089.41 169.25 1088.41C170.22 1087.86 171.392 1088.13 172.562 1088.55C173.703 1100.73 175.127 1112.9 176.853 1125.04H161.344C140.751 1125.04 122.276 1136.49 113.132 1154.94L55.1213 1271.94C51.459 1279.32 49.5228 1287.58 49.5228 1295.82V1596.66C49.5228 1626.33 73.6622 1650.46 103.334 1650.46H238.739C268.41 1650.46 292.549 1626.33 292.549 1596.66V1319.65C292.549 1312.9 291.298 1306.28 288.829 1300L233.542 1159.18C226.837 1142.1 212.314 1130.02 194.953 1126.28C200.521 1119.68 206.099 1113.08 211.719 1106.51C218.796 1109.93 226.582 1112.73 234.952 1114.69C257.096 1119.9 265.711 1115.26 267.891 1113.98C269.972 1112.77 278.994 1107.82 280.523 1099.56C280.687 1098.68 280.75 1097.78 280.738 1096.88C303.421 1115.32 315.254 1124.4 323.899 1121.37C331.331 1118.77 335.574 1110.23 338.004 1102.57C340.541 1102.93 343.232 1103.29 346.1 1103.67C377.166 1107.82 392.821 1109.74 398.81 1102.38C407.097 1092.2 399.231 1072.57 397.063 1067.16C392.35 1055.4 385.101 1048.25 380.597 1043.9C374.75 1038.25 358.083 1022.14 331.844 1019.99C326.14 1019.52 321.016 1019.88 315.795 1020.97C313.977 1019.31 312.057 1017.68 309.943 1016.13C305.915 1013.18 301.938 1011 297.657 1009.29C304.224 1002.1 310.809 994.926 317.425 987.785C318.473 988.261 319.467 988.721 320.381 989.145C342.056 999.209 346.818 1009.06 367.662 1014.25C377.119 1016.61 387.825 1019.27 390.475 1015.26C395.184 1008.15 375.198 978.864 344.314 959.051C346.396 956.847 348.484 954.65 350.571 952.452C353.395 953.636 355.883 954.79 358.004 955.774C379.678 965.838 384.441 975.693 405.285 980.881C414.741 983.234 425.448 985.899 428.098 981.893C432.299 975.543 416.841 951.539 391.524 932.365C398.478 930.157 407.7 927.71 419.64 928.024C437.752 928.5 451.9 935.068 460.299 938.968C481.974 949.032 486.736 958.887 507.58 964.074C517.037 966.428 527.743 969.093 530.394 965.086C537.393 954.506 489.851 894.897 432.979 890.321C428.565 889.966 424.597 889.996 421.01 890.261C420.514 889.44 419.976 888.597 419.409 887.74C438.651 888.358 476.23 882.859 508.215 905.308C517.438 911.781 535.355 927.008 565.339 939.518C574.922 943.517 579.742 945.483 581.069 943.84C585.82 937.963 546.316 889.593 490.738 865.765C468.703 856.317 455.088 855.423 445.404 856.854C446.897 855.154 448.351 853.398 449.751 851.635C471.393 830.417 493.307 809.42 515.418 788.706C514.348 792.015 514.383 793.776 515.551 795.06V795.06ZM237.829 1059.15C213.386 1051.24 183.787 1055.49 176.069 1064.49C174.981 1056.51 174.035 1048.52 173.256 1040.52C184.392 1046.73 196.012 1048.4 218.054 1051.34C227.442 1052.6 235.401 1053.64 242.133 1054.29C243.037 1056.74 244.001 1058.95 245.12 1061.05C245.25 1061.3 245.389 1061.53 245.521 1061.77L245.326 1062C242.816 1060.91 240.301 1059.95 237.829 1059.15H237.829ZM172.885 951.976C173.583 949.664 173.597 947.202 173.065 944.664C173.825 935.467 174.775 926.3 175.898 917.16C175.869 918.559 176.313 919.959 176.918 921.477C183.713 938.538 202.075 954.914 227.103 963.409C231.772 964.994 235.777 965.994 239.227 966.604C237.709 969.248 236.547 971.825 235.776 974.208C227.243 967.355 216.26 962.372 203.797 967.659C200.406 969.097 198.393 974.36 196.645 980.654C185.132 980.852 175.512 983.254 170.93 987.316C170.955 985.622 170.946 983.931 170.991 982.234C171.249 972.561 171.726 962.919 172.398 953.307C172.582 952.877 172.747 952.435 172.885 951.976H172.885ZM170.962 1001.73C171.459 1002.75 172.002 1003.76 172.566 1004.76C172.054 1004.39 171.53 1003.98 170.992 1003.54C170.977 1002.94 170.974 1002.33 170.962 1001.73ZM190.619 1125.53C189.279 1125.36 187.926 1125.23 186.56 1125.15C183.409 1109.51 180.499 1093.88 178.064 1078.22C184.468 1088.39 194.922 1097.69 208.238 1104.74C202.33 1111.66 196.47 1118.59 190.619 1125.53H190.619ZM293.788 1007.9C285.452 1005.23 275.67 1003.95 262.132 1002.37C258.701 997.607 255.165 994.096 252.551 991.57C251.135 990.201 248.961 987.486 246.145 984.31C253.442 981.969 264.333 977.797 279.722 978.201C293.709 978.569 305.316 982.567 313.752 986.166C307.07 993.384 300.421 1000.63 293.788 1007.9V1007.9ZM341.031 957.003C332.839 952.055 323.956 947.818 314.604 944.841C315.513 944.832 316.402 944.805 317.345 944.83C328.942 945.135 338.903 947.939 346.78 950.939C344.863 952.96 342.944 954.977 341.031 957.003V957.003Z" fill="#CCCCCC"/>
</g>
<defs>
<clipPath id="clip0_5_3">
<rect width="1869" height="1489" fill="white" transform="translate(0 205)"/>
</clipPath>
</defs>
</svg>
