<svg width="1197" height="665" viewBox="0 0 1197 665" fill="none" xmlns="http://www.w3.org/2000/svg">
<g clip-path="url(#clip0_5_3)">
<path d="M962.945 648.282L947.051 648.281L939.49 586.967L962.947 586.968L962.945 648.282Z" fill="#FFB8B8"/>
<path d="M966.997 663.691L915.75 663.689V663.041C915.751 657.75 917.853 652.676 921.593 648.934C925.334 645.193 930.407 643.091 935.697 643.091H935.699L966.998 643.092L966.997 663.691Z" fill="#2F2E41"/>
<path d="M1033.09 609.201L1022.77 621.294L971.232 587.247L986.459 569.4L1033.09 609.201Z" fill="#FFB8B8"/>
<path d="M1047.44 616.119L1014.18 655.11L1013.68 654.689C1009.66 651.254 1007.16 646.362 1006.75 641.087C1006.33 635.813 1008.02 630.588 1011.46 626.563L1011.46 626.562L1031.77 602.748L1047.44 616.119Z" fill="#2F2E41"/>
<path d="M850.095 346.745L845.147 392.38L1045.14 389.527L957.923 247.387L886.71 244.828L850.095 346.745Z" fill="#2F2E41"/>
<path opacity="0.28" d="M850.095 346.745L845.147 392.38L1045.14 389.527L957.923 247.387L886.71 244.828L850.095 346.745Z" fill="black"/>
<path d="M889.421 354.58L882.361 396.336V433.659L939.287 452.245C939.287 452.245 932.623 597.217 941.507 606.451L941.289 628.741L966.123 629.87L966.326 614.183L976.854 496.927L983.055 410.837L973.001 345.567L889.421 354.58Z" fill="#2F2E41"/>
<path d="M933.525 390.523L882.361 433.659C882.361 433.659 879.366 511.486 886.971 520.613C893.502 528.452 978.447 596.068 978.447 596.068C978.447 596.068 993.545 609.919 1002.01 610.14C1010.47 610.361 1020.31 592.612 1020.31 592.612L1000.71 577.722C1000.71 577.722 949.95 530.33 934.878 511.486C928.794 503.88 928.794 503.119 928.794 503.119L930.872 471.49L951.783 412.791L933.525 390.523Z" fill="#2F2E41"/>
<path d="M879.205 183.902L857.145 181.863L837.136 185.199L794.767 185.212L791.157 215.926L829.822 224.58L839.245 219.961L878.522 234.929L879.205 183.902Z" fill="#2F2E41"/>
<path d="M905.552 183.806C905.552 183.806 952.368 179.419 963.014 187.785C973.66 196.151 996.472 361.957 996.472 361.957L905.552 367.089L889.252 355.872L893.879 273.096L905.552 183.806Z" fill="#CCCCCC"/>
<path d="M919.842 182.773L868.2 183.907L820.052 401.506L858.074 409.874L919.842 182.773Z" fill="#2F2E41"/>
<path d="M956.553 180.934L997.232 193.669L994.922 283.073L1045.14 389.963L986.105 396.183L939.44 280.762L956.553 180.934Z" fill="#2F2E41"/>
<path d="M1023.63 400.821C1025.06 399.565 1026.19 398.012 1026.95 396.271C1027.71 394.529 1028.08 392.642 1028.04 390.743C1027.99 388.843 1027.53 386.976 1026.68 385.275C1025.84 383.573 1024.63 382.078 1023.14 380.895L1031.32 352.34L1015.19 343.133L1004.2 383.621C1002.37 386.25 1001.58 389.457 1001.96 392.633C1002.35 395.809 1003.88 398.735 1006.28 400.855C1008.67 402.975 1011.76 404.143 1014.96 404.136C1018.16 404.13 1021.25 402.95 1023.63 400.821V400.821Z" fill="#FFB8B8"/>
<path d="M973.66 196.151L997.73 194.063C997.73 194.063 1019.34 216.668 1024.25 234.171C1029.17 251.674 1034.49 306.435 1034.49 306.435L1032.27 386.546L1004.14 367.435L1002.25 298.53L973.66 196.151Z" fill="#2F2E41"/>
<path d="M967.853 155.886C976.892 139.348 970.815 118.612 954.28 109.572C937.746 100.531 917.014 106.609 907.975 123.147C898.937 139.685 905.013 160.421 921.548 169.461C938.083 178.502 958.814 172.424 967.853 155.886Z" fill="#FFB8B8"/>
<path d="M934.11 125.269C929.633 124.235 924.986 125.381 920.452 126.124C915.918 126.868 910.921 127.113 907.085 124.582C904.253 122.714 902.511 119.622 900.876 116.649C900.194 115.586 899.739 114.395 899.541 113.148C899.348 110.949 900.747 108.942 902.232 107.309C909.131 99.7236 919.214 95.572 929.381 94.2532C937.766 93.0033 946.333 94.0496 954.171 97.281C961.89 100.667 968.524 106.867 971.559 114.732C972.956 118.757 973.829 122.945 974.156 127.193C974.614 130.319 974.673 133.491 974.331 136.631C973.922 138.959 973.31 141.247 972.502 143.469L967.476 158.649C967.114 160.084 966.439 161.421 965.499 162.563C965.016 163.122 964.365 163.51 963.643 163.668C962.921 163.826 962.167 163.746 961.495 163.44C961.897 161.791 961.958 160.078 961.675 158.404C961.518 157.57 961.114 156.802 960.517 156.2C959.919 155.597 959.155 155.187 958.323 155.023C956.47 154.826 954.887 156.263 953.13 156.881C952.325 157.12 951.482 157.197 950.647 157.11C949.813 157.022 949.004 156.771 948.267 156.371C947.529 155.971 946.878 155.429 946.35 154.777C945.822 154.125 945.427 153.375 945.189 152.571C945.141 152.409 945.099 152.245 945.064 152.079C944.786 150.344 945.252 148.486 944.595 146.856C943.824 144.946 941.781 143.946 940.245 142.573C938.844 141.281 937.842 139.614 937.355 137.771C936.869 135.928 936.918 133.984 937.498 132.167C937.909 130.904 939.07 130.33 938.838 128.878C938.533 126.974 935.727 125.643 934.11 125.269Z" fill="#2F2E41"/>
<path d="M554.769 269.528H124V0H554.769V269.528Z" fill="white"/>
<path d="M554.769 269.528H124V0H554.769V269.528ZM125.967 267.561H552.802V1.96736H125.967V267.561Z" fill="#3F3D56"/>
<path d="M502.152 642.836H256.28V373.307H502.152V642.836Z" fill="white"/>
<path d="M502.152 642.836H256.28V373.307H502.152V642.836ZM258.247 640.868H500.185V375.274H258.247V640.868Z" fill="#3F3D56"/>
<path d="M468.714 617.379H417.572V619.453H468.714V617.379Z" fill="#3F3D56"/>
<path d="M468.714 623.6H417.572V625.674H468.714V623.6Z" fill="#3F3D56"/>
<path d="M468.714 629.822H417.572V631.895H468.714V629.822Z" fill="#3F3D56"/>
<path d="M379.216 421.507V443.148C392.054 443.148 404.604 446.956 415.278 454.09C425.953 461.224 434.273 471.363 439.185 483.226C444.098 495.089 445.384 508.143 442.879 520.737C440.375 533.331 434.193 544.899 425.115 553.979L440.414 569.281C452.518 557.175 460.761 541.751 464.1 524.959C467.44 508.167 465.726 490.762 459.175 474.945C452.625 459.127 441.532 445.608 427.299 436.096C413.067 426.584 396.333 421.507 379.216 421.507Z" fill="#E6E6E6"/>
<path d="M440.414 569.281L425.115 553.979C414.017 565.081 399.273 571.783 383.613 572.845C367.953 573.907 352.439 569.256 339.944 559.754L326.848 576.989C343.51 589.655 364.196 595.854 385.077 594.436C405.957 593.019 425.616 584.082 440.414 569.281Z" fill="#575A89"/>
<path d="M314.306 508.071C314.306 499.545 315.984 491.103 319.247 483.226C322.509 475.349 327.29 468.192 333.317 462.164C339.345 456.135 346.501 451.353 354.376 448.09C362.251 444.828 370.692 443.148 379.216 443.148V421.507C361.098 421.507 343.437 427.194 328.723 437.766C314.008 448.338 302.981 463.263 297.197 480.435C291.414 497.608 291.164 516.164 296.483 533.486C301.803 550.809 312.424 566.025 326.848 576.989L339.944 559.754C331.97 553.705 325.506 545.891 321.058 536.924C316.609 527.957 314.298 518.081 314.306 508.071V508.071Z" fill="#22C55E"/>
<path d="M866.044 475.61H620.171V206.081H866.044V475.61Z" fill="white"/>
<path d="M866.044 475.61H620.171V206.081H866.044V475.61ZM622.138 473.643H864.077V208.048H622.138V473.643Z" fill="#3F3D56"/>
<path d="M699.834 370.848H655.577V441.673H699.834V370.848Z" fill="#575A89"/>
<path d="M763.761 322.647H719.504V441.673H763.761V322.647Z" fill="#E6E6E6"/>
<path d="M827.688 266.578H783.431V441.673H827.688V266.578Z" fill="#22C55E"/>
<path d="M842.44 443.641H643.775V238.051H645.742V441.673H842.44V443.641Z" fill="#3F3D56"/>
<path d="M794.543 213.257C802.024 213.257 808.089 207.191 808.089 199.708C808.089 192.226 802.024 186.16 794.543 186.16C787.062 186.16 780.997 192.226 780.997 199.708C780.997 207.191 787.062 213.257 794.543 213.257Z" fill="#FFB8B8"/>
<path d="M1072.87 665H861.783C861.483 665 861.196 664.881 860.984 664.669C860.773 664.458 860.654 664.17 860.654 663.871C860.654 663.572 860.773 663.284 860.984 663.073C861.196 662.861 861.483 662.742 861.783 662.742H1072.87C1073.17 662.742 1073.46 662.861 1073.67 663.073C1073.88 663.284 1074 663.572 1074 663.871C1074 664.17 1073.88 664.458 1073.67 664.669C1073.46 664.881 1073.17 665 1072.87 665Z" fill="#CCCCCC"/>
<path d="M494.946 213.16H183.824C183.565 213.16 183.318 213.057 183.135 212.874C182.952 212.692 182.85 212.444 182.85 212.186V63.0364C182.85 62.7781 182.952 62.5304 183.135 62.3477C183.318 62.1651 183.565 62.0625 183.824 62.0625C184.082 62.0625 184.329 62.1651 184.512 62.3477C184.695 62.5304 184.797 62.7781 184.797 63.0364V211.212H494.946C495.074 211.212 495.201 211.236 495.319 211.285C495.438 211.334 495.545 211.406 495.636 211.496C495.727 211.586 495.799 211.694 495.848 211.812C495.897 211.931 495.923 212.058 495.923 212.186C495.923 212.314 495.897 212.441 495.848 212.559C495.799 212.678 495.727 212.785 495.636 212.876C495.545 212.966 495.438 213.038 495.319 213.087C495.201 213.135 495.074 213.16 494.946 213.16V213.16Z" fill="#3F3D56"/>
<path d="M250.297 202.447H221.999C221.233 202.446 220.498 202.142 219.956 201.6C219.414 201.058 219.11 200.323 219.109 199.557V160.54C219.11 159.774 219.414 159.039 219.956 158.497C220.498 157.955 221.233 157.651 221.999 157.65H250.297C251.063 157.651 251.798 157.955 252.339 158.497C252.881 159.039 253.186 159.774 253.187 160.54V199.557C253.186 200.323 252.881 201.058 252.34 201.6C251.798 202.142 251.063 202.446 250.297 202.447V202.447Z" fill="#22C55E"/>
<path d="M301.901 202.447H273.604C272.837 202.446 272.103 202.142 271.561 201.6C271.019 201.058 270.714 200.323 270.713 199.557V123.534C270.714 122.768 271.019 122.033 271.561 121.491C272.103 120.949 272.837 120.644 273.604 120.643H301.901C302.668 120.644 303.402 120.949 303.944 121.491C304.486 122.033 304.791 122.768 304.792 123.534V199.557C304.791 200.323 304.486 201.058 303.944 201.6C303.402 202.142 302.668 202.446 301.901 202.447V202.447Z" fill="#22C55E"/>
<path d="M353.506 202.447H325.208C324.442 202.446 323.707 202.142 323.165 201.6C322.624 201.058 322.319 200.323 322.318 199.557V160.54C322.319 159.774 322.624 159.039 323.165 158.497C323.707 157.955 324.442 157.651 325.208 157.65H353.506C354.272 157.651 355.007 157.955 355.549 158.497C356.09 159.039 356.395 159.774 356.396 160.54V199.557C356.395 200.323 356.09 201.058 355.549 201.6C355.007 202.142 354.272 202.446 353.506 202.447V202.447Z" fill="#22C55E"/>
<path d="M405.11 202.447H376.813C376.064 202.463 375.339 202.182 374.797 201.665C374.256 201.147 373.941 200.437 373.922 199.688V108.795C373.941 108.046 374.256 107.335 374.797 106.818C375.339 106.301 376.064 106.019 376.813 106.035H405.11C405.859 106.019 406.584 106.301 407.126 106.818C407.667 107.335 407.982 108.046 408.001 108.795V199.688C407.982 200.437 407.667 201.147 407.126 201.665C406.584 202.182 405.859 202.463 405.11 202.447V202.447Z" fill="#22C55E"/>
<path d="M456.715 202.447H428.417C427.651 202.446 426.916 202.142 426.374 201.6C425.833 201.058 425.528 200.323 425.527 199.557V82.6319C425.528 81.8655 425.833 81.1308 426.374 80.5889C426.916 80.0469 427.651 79.7421 428.417 79.7413H456.715C457.481 79.7421 458.216 80.0469 458.758 80.5889C459.3 81.1308 459.604 81.8655 459.605 82.6319V199.557C459.604 200.323 459.3 201.058 458.758 201.6C458.216 202.142 457.481 202.446 456.715 202.447V202.447Z" fill="#22C55E"/>
<path d="M236.148 145.964C239.374 145.964 241.99 143.348 241.99 140.12C241.99 136.893 239.374 134.277 236.148 134.277C232.921 134.277 230.306 136.893 230.306 140.12C230.306 143.348 232.921 145.964 236.148 145.964Z" fill="#3F3D56"/>
<path d="M287.752 107.983C290.979 107.983 293.594 105.367 293.594 102.14C293.594 98.9129 290.979 96.2969 287.752 96.2969C284.526 96.2969 281.91 98.9129 281.91 102.14C281.91 105.367 284.526 107.983 287.752 107.983Z" fill="#3F3D56"/>
<path d="M339.357 145.964C342.583 145.964 345.199 143.348 345.199 140.12C345.199 136.893 342.583 134.277 339.357 134.277C336.13 134.277 333.515 136.893 333.515 140.12C333.515 143.348 336.13 145.964 339.357 145.964Z" fill="#3F3D56"/>
<path d="M390.962 89.4799C394.188 89.4799 396.804 86.8638 396.804 83.6367C396.804 80.4096 394.188 77.7936 390.962 77.7936C387.735 77.7936 385.12 80.4096 385.12 83.6367C385.12 86.8638 387.735 89.4799 390.962 89.4799Z" fill="#3F3D56"/>
<path d="M442.566 68.055C445.793 68.055 448.408 65.4389 448.408 62.2119C448.408 58.9848 445.793 56.3687 442.566 56.3687C439.34 56.3687 436.724 58.9848 436.724 62.2119C436.724 65.4389 439.34 68.055 442.566 68.055Z" fill="#3F3D56"/>
<path d="M339.48 141.429L287.753 102.678L236.731 140.9L235.564 139.341L287.753 100.243L339.233 138.811L390.393 82.8168L390.598 82.7332L442.202 61.9365L442.93 63.744L391.53 84.4573L339.48 141.429Z" fill="#3F3D56"/>
</g>
<defs>
<clipPath id="clip0_5_3">
<rect width="950" height="665" fill="white" transform="translate(124)"/>
</clipPath>
</defs>
</svg>
