<svg width="1197" height="665" viewBox="0 0 1197 665" fill="none" xmlns="http://www.w3.org/2000/svg">
<g clip-path="url(#clip0_5_3)">
<path d="M847.155 248.867C811.034 106.795 686.227 4.23864 539.73 0.125195C462.281 -2.04948 380.783 23.6438 321.447 113.554C215.377 274.277 327.965 385.342 406.459 438.118C444.381 463.667 478.55 494.387 507.978 529.388C560.998 592.322 662.996 670.526 784.471 547.993C872.517 459.18 871.215 343.502 847.155 248.867Z" fill="#F2F2F2"/>
<path d="M945.196 565.256C945.196 600.13 793.055 665 601.412 665C409.77 665 252 604.151 252 569.278C252 534.404 409.77 538.711 601.412 538.711C793.055 538.711 945.196 530.382 945.196 565.256Z" fill="#3F3D56"/>
<path opacity="0.1" d="M945.196 565.256C945.196 600.13 793.055 665 601.412 665C409.77 665 252 604.151 252 569.278C252 534.404 409.77 538.711 601.412 538.711C793.055 538.711 945.196 530.382 945.196 565.256Z" fill="black"/>
<path d="M599 632.02C790.643 632.02 946 603.749 946 568.876C946 534.002 790.643 505.731 599 505.731C407.357 505.731 252 534.002 252 568.876C252 603.749 407.357 632.02 599 632.02Z" fill="#3F3D56"/>
<path d="M730.369 354.123V522.999L758.609 569.035L760.758 572.537H872.187L874.438 354.123H730.369Z" fill="#2F2E41"/>
<path opacity="0.1" d="M730.369 354.123V522.999L758.609 569.035L760.342 354.123H730.369Z" fill="black"/>
<path d="M461.364 349.619V518.496L433.124 564.532L430.975 568.033H319.546L317.295 349.619H461.364Z" fill="#2F2E41"/>
<path opacity="0.1" d="M461.365 349.619V518.496L433.124 564.532L431.391 349.619H461.365Z" fill="black"/>
<path d="M908.204 346.241V356.374H302.663V341.738L358.94 312.467H858.68L908.204 346.241Z" fill="#2F2E41"/>
<path opacity="0.1" d="M908.204 346.241V356.374H302.663V341.738L908.204 346.241Z" fill="black"/>
<path opacity="0.1" d="M389.329 396.905H362.316L351.061 389.024H401.71L389.329 396.905Z" fill="black"/>
<path opacity="0.1" d="M389.329 429.554H362.316L351.061 421.673H401.71L389.329 429.554Z" fill="black"/>
<path opacity="0.1" d="M389.329 475.714H362.316L351.061 467.833H401.71L389.329 475.714Z" fill="black"/>
<path opacity="0.1" d="M389.329 521.873H362.316L351.061 513.993H401.71L389.329 521.873Z" fill="black"/>
<path opacity="0.1" d="M802.403 401.408H829.416L840.671 393.527H790.022L802.403 401.408Z" fill="black"/>
<path opacity="0.1" d="M802.403 434.057H829.416L840.671 426.177H790.022L802.403 434.057Z" fill="black"/>
<path opacity="0.1" d="M802.403 480.217H829.416L840.671 472.337H790.022L802.403 480.217Z" fill="black"/>
<path opacity="0.1" d="M802.403 526.377H829.416L840.671 518.496H790.022L802.403 526.377Z" fill="black"/>
<path d="M680.234 284.293L676.48 308.269C676.48 308.269 657.996 318.091 670.992 318.38C683.988 318.669 745.214 318.38 745.214 318.38C745.214 318.38 757.055 318.38 738.283 307.98L734.528 282.848L680.234 284.293Z" fill="#3F3D56"/>
<path opacity="0.1" d="M668.378 318.12C670.902 316.079 673.615 314.283 676.48 312.756L680.234 288.779L734.528 288.83L738.283 312.467C741.367 314.059 744.276 315.974 746.958 318.177C749.369 317.627 752.004 315.582 738.283 307.98L734.528 282.848L680.234 284.293L676.479 308.269C676.479 308.269 660.948 316.524 668.378 318.12Z" fill="black"/>
<path d="M820.798 117.177H593.386C588.636 117.177 584.786 121.028 584.786 125.78V279.012C584.786 283.763 588.636 287.615 593.386 287.615H820.798C825.548 287.615 829.399 283.763 829.399 279.012V125.78C829.399 121.028 825.548 117.177 820.798 117.177Z" fill="#3F3D56"/>
<path d="M821.168 126.276H593.017V253.96H821.168V126.276Z" fill="#F2F2F2"/>
<path d="M707.092 123.677C707.89 123.677 708.536 123.03 708.536 122.232C708.536 121.434 707.89 120.788 707.092 120.788C706.295 120.788 705.648 121.434 705.648 122.232C705.648 123.03 706.295 123.677 707.092 123.677Z" fill="#F2F2F2"/>
<path d="M829.399 264.071V279.012C829.399 280.142 829.177 281.26 828.744 282.304C828.312 283.348 827.679 284.296 826.88 285.095C826.081 285.894 825.133 286.528 824.09 286.96C823.046 287.392 821.928 287.615 820.798 287.615H593.386C592.257 287.615 591.138 287.392 590.095 286.96C589.051 286.528 588.103 285.894 587.304 285.095C586.506 284.296 585.872 283.348 585.44 282.304C585.008 281.26 584.786 280.142 584.786 279.012V264.071H829.399Z" fill="#3F3D56"/>
<path d="M707.092 281.404C710.123 281.404 712.579 278.946 712.579 275.915C712.579 272.884 710.123 270.426 707.092 270.426C704.062 270.426 701.605 272.884 701.605 275.915C701.605 278.946 704.062 281.404 707.092 281.404Z" fill="#F2F2F2"/>
<path d="M698.541 333.979V336.869H543.167V334.558L543.381 333.979L547.211 323.58H695.365L698.541 333.979Z" fill="#3F3D56"/>
<path d="M758.335 331.151C758.052 332.362 756.983 333.639 754.569 334.846C745.905 339.179 728.288 333.691 728.288 333.691C728.288 333.691 714.714 331.38 714.714 325.313C715.095 325.052 715.493 324.816 715.904 324.605C719.547 322.678 731.624 317.921 753.039 324.807C754.617 325.302 756.026 326.226 757.11 327.475C757.59 327.947 757.951 328.527 758.164 329.166C758.377 329.805 758.436 330.485 758.335 331.151V331.151Z" fill="#3F3D56"/>
<path opacity="0.1" d="M758.335 331.151C747.73 335.216 738.278 335.519 728.577 328.78C723.685 325.383 719.24 324.542 715.904 324.605C719.547 322.678 731.624 317.921 753.039 324.807C754.617 325.302 756.026 326.226 757.11 327.475C757.59 327.947 757.951 328.527 758.164 329.166C758.377 329.805 758.436 330.485 758.335 331.151V331.151Z" fill="black"/>
<path d="M745.038 328.78C747.112 328.78 748.793 328.262 748.793 327.624C748.793 326.986 747.112 326.469 745.038 326.469C742.965 326.469 741.284 326.986 741.284 327.624C741.284 328.262 742.965 328.78 745.038 328.78Z" fill="#F2F2F2"/>
<path opacity="0.1" d="M698.541 333.979V336.869H543.167V334.558L543.381 333.979H698.541Z" fill="black"/>
<path d="M787.332 186.579C786.106 185.353 770.374 165.529 767.718 162.26C764.858 158.99 763.632 159.603 761.793 159.807C759.954 160.012 740.136 163.486 737.889 163.69C735.641 164.099 734.211 164.916 735.641 166.96C736.867 168.799 749.943 187.192 752.803 191.484L700.704 203.95L659.433 134.67C657.799 132.218 657.39 131.4 653.712 131.605C650.035 131.809 621.227 134.261 619.184 134.261C617.141 134.466 614.893 135.283 616.936 140.188C618.979 145.093 651.669 215.395 652.487 217.438C653.304 219.482 655.755 222.752 661.272 221.526C666.993 220.095 686.606 214.986 697.435 212.125C703.156 222.343 714.597 243.189 716.844 246.254C719.705 250.341 721.748 249.524 726.038 248.298C729.512 247.276 779.568 229.292 781.815 228.27C784.063 227.248 785.493 226.635 783.859 224.387C782.633 222.752 769.557 204.972 762.61 195.776C767.309 194.549 784.267 190.053 786.106 189.44C788.149 188.827 788.558 187.805 787.332 186.579V186.579ZM692.736 205.994C692.123 206.198 662.906 213.147 661.476 213.555C659.842 213.964 659.842 213.76 659.842 213.147C659.433 212.534 625.109 141.414 624.496 140.597C624.087 139.779 624.087 138.962 624.496 138.962C624.904 138.962 652.078 136.509 652.895 136.509C653.917 136.509 653.712 136.714 654.121 137.327C654.121 137.327 692.327 203.337 692.94 204.359C693.757 205.381 693.349 205.79 692.736 205.994V205.994ZM774.869 221.321C775.277 222.139 775.89 222.548 774.256 222.956C772.826 223.569 725.017 239.714 723.995 240.123C722.974 240.532 722.361 240.736 721.135 238.897C719.909 237.058 704.381 210.286 704.381 210.286L755.255 197.002C756.481 196.593 756.889 196.389 757.707 197.615C758.524 199.045 774.46 220.708 774.869 221.321V221.321ZM778.138 185.353C776.912 185.557 758.32 190.258 758.32 190.258L742.996 169.412C742.588 168.799 742.179 168.186 743.201 167.982C744.222 167.777 761.589 164.712 762.406 164.508C763.223 164.303 763.836 164.099 764.858 165.529C765.879 166.756 778.955 183.514 779.568 184.127C780.181 184.74 779.364 185.149 778.138 185.353V185.353Z" fill="#FB503B"/>
<path d="M569.357 156.165C586.344 156.165 600.114 142.391 600.114 125.4C600.114 108.409 586.344 94.6346 569.357 94.6346C552.371 94.6346 538.601 108.409 538.601 125.4C538.601 142.391 552.371 156.165 569.357 156.165Z" fill="#FFB9B9"/>
<path d="M546.695 140.782V189.359H596.877C596.877 189.359 590.402 148.879 593.639 136.734L546.695 140.782Z" fill="#FFB9B9"/>
<path d="M646.25 206.361C646.25 206.361 598.496 182.882 598.496 181.263C598.496 179.644 593.639 169.119 590.402 169.119C587.164 169.119 559.645 160.213 544.266 173.167L542.648 183.692L483.562 222.553L499.75 281.655C499.75 281.655 510.272 292.989 507.034 301.085C503.797 309.182 509.463 350.472 509.463 350.472L636.537 346.424V291.37C636.537 291.37 640.584 278.416 643.012 274.368C645.44 270.32 643.012 258.176 643.012 258.176L662.438 233.888C662.438 233.888 660.009 211.219 646.25 206.361Z" fill="#D0CDE1"/>
<path opacity="0.1" d="M485.585 242.389L489.228 222.553C489.228 222.553 468.183 314.039 470.612 324.564C473.04 335.089 490.846 351.281 493.275 352.091C495.703 352.901 518.366 282.464 518.366 282.464L485.585 242.389Z" fill="black"/>
<path d="M497.322 220.124L483.562 222.553C483.562 222.553 462.518 314.039 464.946 324.564C467.374 335.089 485.181 351.281 487.609 352.091C490.037 352.901 512.7 282.464 512.7 282.464L497.322 220.124Z" fill="#D0CDE1"/>
<path opacity="0.1" d="M650.701 247.246L657.581 233.888C657.581 233.888 667.294 325.374 660.819 334.279C654.344 343.185 628.73 346.518 628.73 346.518L628.443 280.036L650.701 247.246Z" fill="black"/>
<path d="M651.915 223.363L662.437 233.888C662.437 233.888 672.15 325.374 665.675 334.28C659.2 343.185 633.586 346.518 633.586 346.518L633.299 280.036L651.915 223.363Z" fill="#D0CDE1"/>
<path d="M494.893 362.616C494.893 362.616 471.421 353.71 467.374 370.712C463.327 387.714 477.087 463.817 477.087 463.817C477.087 463.817 485.99 521.3 491.656 522.919C497.322 524.538 522.413 525.348 526.46 518.061C530.507 510.775 514.319 436.29 514.319 436.29L608.208 434.671C608.208 434.671 602.543 499.44 599.305 505.107C596.067 510.775 596.067 530.205 599.305 530.205C602.543 530.205 638.156 528.586 640.584 523.728C643.012 518.871 656.772 409.573 656.772 409.573C656.772 409.573 668.103 371.522 655.153 373.95C642.203 376.379 494.893 362.616 494.893 362.616Z" fill="#3F3D56"/>
<path d="M633.299 520.49C633.299 520.49 641.393 514.823 645.44 520.49C649.487 526.157 651.106 532.634 633.299 542.349C615.493 552.065 601.733 549.636 601.733 548.017V524.538L633.299 520.49Z" fill="#2F2E41"/>
<path d="M493.275 518.061C493.275 518.061 485.181 512.394 481.134 518.061C477.087 523.728 475.468 530.205 493.275 539.921C511.081 549.636 524.841 547.207 524.841 545.588V522.109L493.275 518.061Z" fill="#2F2E41"/>
<path d="M569.557 86.608C566.493 86.5015 563.435 86.9375 560.523 87.8959C558.265 88.8038 556.108 89.9453 554.088 91.3018L540.509 99.748C539.356 100.247 538.377 101.076 537.695 102.131C537.013 103.187 536.658 104.42 536.676 105.676L534.979 118.387C534.551 121.595 534.156 125.025 535.592 127.925C536.79 130.346 539.075 132.003 540.954 133.943C543.961 137.06 545.984 140.994 546.773 145.253C547.745 150.56 547.123 156.951 551.321 160.338C553.595 162.171 556.694 162.518 559.609 162.689C567.582 163.154 575.58 162.846 583.494 161.769C584.752 161.675 585.978 161.331 587.102 160.758C588.53 159.913 589.428 158.423 590.268 156.992C593.3 151.828 596.426 146.335 596.393 140.346C596.377 137.383 595.619 134.202 597.041 131.603C597.792 130.498 598.608 129.438 599.484 128.429C601.244 125.954 601.587 122.774 601.874 119.75C602.791 110.091 601.833 102.74 594.715 95.9352C588.071 89.5833 578.618 86.6664 569.557 86.608Z" fill="#2F2E41"/>
<path d="M494.005 458.263L466.992 595.616H480.498L506.386 460.515L494.005 458.263Z" fill="#2F2E41"/>
<path d="M580.671 469.522L597.555 627.14H608.81L598.68 465.018L580.671 469.522Z" fill="#2F2E41"/>
<path d="M626.819 465.018L650.455 569.722H661.71L639.2 462.767L626.819 465.018Z" fill="#2F2E41"/>
<path d="M536.776 465.018L533.399 548.331H542.403L549.157 465.018H536.776Z" fill="#2F2E41"/>
<path d="M474.871 443.627C474.871 443.627 456.862 323.162 507.511 319.784C558.161 316.407 630.195 319.784 630.195 319.784C630.195 319.784 671.84 316.407 659.459 443.627C659.459 443.627 670.715 480.78 569.416 477.403C468.117 474.025 474.871 443.627 474.871 443.627Z" fill="#22C55E"/>
<path d="M936.35 492.821C936.35 513.828 923.865 521.163 908.464 521.163C893.064 521.163 880.579 513.828 880.579 492.821C880.579 471.814 908.464 445.09 908.464 445.09C908.464 445.09 936.35 471.814 936.35 492.821Z" fill="#22C55E"/>
<path d="M907.734 500.369L919.619 478.619L907.779 497.61L907.907 489.706L916.098 473.969L907.941 487.613L908.172 473.396L916.944 460.868L908.208 471.161L908.353 445.09L907.485 478.124L898.602 464.524L907.377 480.911L906.547 496.79L906.522 496.368L896.24 482L906.49 497.857L906.386 499.843L906.368 499.873L906.377 500.037L904.268 521.226H907.085L907.423 519.514L917.648 503.694L907.448 517.949L907.734 500.369Z" fill="#3F3D56"/>
<path d="M926.274 566.732H893.028L884.437 518.158H932.997L926.274 566.732Z" fill="#2F2E41"/>
<path d="M437.764 238.341H368.605V319.445H437.764V238.341Z" fill="#3F3D56"/>
<path d="M427.032 250.926H379.336V306.86H427.032V250.926Z" fill="#F2F2F2"/>
<path d="M407.965 262.805L403.121 271.196L398.277 262.805H382.149L403.121 299.14L424.093 262.805H407.965Z" fill="#4DBA87"/>
<path d="M407.965 262.805L403.121 271.196L398.277 262.805H390.538L403.121 284.605L415.704 262.805H407.965Z" fill="#435466"/>
</g>
<defs>
<clipPath id="clip0_5_3">
<rect width="694" height="665" fill="white" transform="translate(252)"/>
</clipPath>
</defs>
</svg>
