<svg width="1197" height="665" viewBox="0 0 1197 665" fill="none" xmlns="http://www.w3.org/2000/svg">
<g clip-path="url(#clip0_5_3)">
<path d="M275.827 586.008C308.546 586.008 335.07 559.484 335.07 526.765C335.07 494.046 308.546 467.521 275.827 467.521C243.108 467.521 216.583 494.046 216.583 526.765C216.583 559.484 243.108 586.008 275.827 586.008Z" fill="#F2F2F2"/>
<path d="M285.46 577.338C318.179 577.338 344.703 550.814 344.703 518.095C344.703 485.376 318.179 458.852 285.46 458.852C252.741 458.852 226.217 485.376 226.217 518.095C226.217 550.814 252.741 577.338 285.46 577.338Z" fill="#22C55E"/>
<path d="M1066.17 452.543H333.171V454.543H1066.17V452.543Z" fill="#3F3D56"/>
<path d="M712.793 23.6522H452.623V18.2899H334.652V23.6522H73.4102C71.0991 23.6522 68.8107 24.1074 66.6755 24.9918C64.5403 25.8762 62.6003 27.1725 60.9661 28.8067C59.332 30.4408 58.0357 32.3809 57.1512 34.516C56.2668 36.6512 55.8116 38.9396 55.8116 41.2507V397.503C55.8116 402.17 57.6658 406.647 60.9661 409.947C64.2665 413.247 68.7427 415.101 73.4102 415.101H712.793C717.46 415.101 721.937 413.247 725.237 409.947C728.537 406.647 730.391 402.17 730.391 397.503V41.2507C730.391 38.9396 729.936 36.6512 729.052 34.516C728.167 32.3809 726.871 30.4408 725.237 28.8067C723.603 27.1725 721.663 25.8762 719.528 24.9918C717.392 24.1074 715.104 23.6522 712.793 23.6522V23.6522Z" fill="#3F3D56"/>
<path d="M706.797 54.7536H79.4058V408.667H706.797V54.7536Z" fill="#22C55E"/>
<path d="M392.565 45.1014C396.119 45.1014 399 42.2205 399 38.6667C399 35.1128 396.119 32.2319 392.565 32.2319C389.011 32.2319 386.13 35.1128 386.13 38.6667C386.13 42.2205 389.011 45.1014 392.565 45.1014Z" fill="#22C55E"/>
<path opacity="0.1" d="M527.374 408.667H79.406V54.754L527.374 408.667Z" fill="black"/>
<path d="M177.574 382.183C210.88 382.183 237.881 355.183 237.881 321.876C237.881 288.57 210.88 261.57 177.574 261.57C144.267 261.57 117.267 288.57 117.267 321.876C117.267 355.183 144.267 382.183 177.574 382.183Z" fill="#F2F2F2"/>
<path d="M597.558 245.622H538.953V257.868H597.558V245.622Z" fill="#3F3D56"/>
<path d="M668.409 150.279H468.102V155.527H668.409V150.279Z" fill="#3F3D56"/>
<path d="M668.409 166.898H468.102V172.147H668.409V166.898Z" fill="#3F3D56"/>
<path d="M668.409 183.518H468.102V188.766H668.409V183.518Z" fill="#3F3D56"/>
<path d="M668.409 200.137H468.102V205.385H668.409V200.137Z" fill="#3F3D56"/>
<path d="M668.409 216.756H468.102V222.005H668.409V216.756Z" fill="#3F3D56"/>
<path d="M668.409 61.9338H643.917V86.4255H668.409V61.9338Z" fill="#F2F2F2"/>
<path d="M679.78 97.7967H650.04V68.0567H679.78V97.7967ZM651.333 96.5037H678.487V69.3498H651.333V96.5037Z" fill="#3F3D56"/>
<path d="M748.007 402.232H686.778V397.82C686.778 397.705 686.755 397.592 686.711 397.486C686.667 397.379 686.603 397.283 686.522 397.202C686.44 397.121 686.344 397.056 686.238 397.012C686.132 396.968 686.018 396.946 685.903 396.946H664.91C664.795 396.946 664.682 396.968 664.575 397.012C664.469 397.056 664.373 397.121 664.292 397.202C664.21 397.283 664.146 397.379 664.102 397.486C664.058 397.592 664.035 397.705 664.035 397.82V402.232H650.915V397.82C650.915 397.705 650.892 397.592 650.848 397.486C650.804 397.379 650.74 397.283 650.659 397.202C650.577 397.121 650.481 397.056 650.375 397.012C650.269 396.968 650.155 396.946 650.04 396.946H629.047C628.932 396.946 628.819 396.968 628.713 397.012C628.606 397.056 628.51 397.121 628.429 397.202C628.348 397.283 628.283 397.379 628.239 397.486C628.195 397.592 628.173 397.705 628.173 397.82V402.232H615.052V397.82C615.052 397.705 615.029 397.592 614.985 397.486C614.942 397.379 614.877 397.283 614.796 397.202C614.715 397.121 614.618 397.056 614.512 397.012C614.406 396.968 614.292 396.946 614.177 396.946H593.184C593.07 396.946 592.956 396.968 592.85 397.012C592.744 397.056 592.647 397.121 592.566 397.202C592.485 397.283 592.42 397.379 592.376 397.486C592.332 397.592 592.31 397.705 592.31 397.82V402.232H579.189V397.82C579.189 397.705 579.167 397.592 579.123 397.486C579.079 397.379 579.014 397.283 578.933 397.202C578.852 397.121 578.755 397.056 578.649 397.012C578.543 396.968 578.429 396.946 578.314 396.946H557.322C557.207 396.946 557.093 396.968 556.987 397.012C556.881 397.056 556.784 397.121 556.703 397.202C556.622 397.283 556.557 397.379 556.513 397.486C556.469 397.592 556.447 397.705 556.447 397.82V402.232H543.326V397.82C543.326 397.705 543.304 397.592 543.26 397.486C543.216 397.379 543.151 397.283 543.07 397.202C542.989 397.121 542.892 397.056 542.786 397.012C542.68 396.968 542.566 396.946 542.452 396.946H521.459C521.344 396.946 521.23 396.968 521.124 397.012C521.018 397.056 520.921 397.121 520.84 397.202C520.759 397.283 520.694 397.379 520.651 397.486C520.607 397.592 520.584 397.705 520.584 397.82V402.232H507.463V397.82C507.463 397.705 507.441 397.592 507.397 397.486C507.353 397.379 507.288 397.283 507.207 397.202C507.126 397.121 507.03 397.056 506.923 397.012C506.817 396.968 506.704 396.946 506.589 396.946H485.596C485.481 396.946 485.367 396.968 485.261 397.012C485.155 397.056 485.058 397.121 484.977 397.202C484.896 397.283 484.832 397.379 484.788 397.486C484.744 397.592 484.721 397.705 484.721 397.82V402.232H471.6V397.82C471.6 397.705 471.578 397.592 471.534 397.486C471.49 397.379 471.425 397.283 471.344 397.202C471.263 397.121 471.167 397.056 471.06 397.012C470.954 396.968 470.841 396.946 470.726 396.946H306.281C306.166 396.946 306.053 396.968 305.947 397.012C305.84 397.056 305.744 397.121 305.663 397.202C305.582 397.283 305.517 397.379 305.473 397.486C305.429 397.592 305.407 397.705 305.407 397.82V402.232H292.286V397.82C292.286 397.705 292.263 397.592 292.219 397.486C292.176 397.379 292.111 397.283 292.03 397.202C291.949 397.121 291.852 397.056 291.746 397.012C291.64 396.968 291.526 396.946 291.411 396.946H270.418C270.304 396.946 270.19 396.968 270.084 397.012C269.978 397.056 269.881 397.121 269.8 397.202C269.719 397.283 269.654 397.379 269.61 397.486C269.566 397.592 269.544 397.705 269.544 397.82V402.232H256.423V397.82C256.423 397.705 256.401 397.592 256.357 397.486C256.313 397.379 256.248 397.283 256.167 397.202C256.086 397.121 255.989 397.056 255.883 397.012C255.777 396.968 255.663 396.946 255.548 396.946H234.556C234.441 396.946 234.327 396.968 234.221 397.012C234.115 397.056 234.018 397.121 233.937 397.202C233.856 397.283 233.791 397.379 233.747 397.486C233.703 397.592 233.681 397.705 233.681 397.82V402.232H220.56V397.82C220.56 397.705 220.538 397.592 220.494 397.486C220.45 397.379 220.385 397.283 220.304 397.202C220.223 397.121 220.126 397.056 220.02 397.012C219.914 396.968 219.8 396.946 219.686 396.946H198.693C198.578 396.946 198.464 396.968 198.358 397.012C198.252 397.056 198.155 397.121 198.074 397.202C197.993 397.283 197.928 397.379 197.885 397.486C197.841 397.592 197.818 397.705 197.818 397.82V402.232H184.697V397.82C184.697 397.705 184.675 397.592 184.631 397.486C184.587 397.379 184.522 397.283 184.441 397.202C184.36 397.121 184.264 397.056 184.157 397.012C184.051 396.968 183.938 396.946 183.823 396.946H162.83C162.715 396.946 162.601 396.968 162.495 397.012C162.389 397.056 162.292 397.121 162.211 397.202C162.13 397.283 162.066 397.379 162.022 397.486C161.978 397.592 161.955 397.705 161.955 397.82V402.232H148.835V397.82C148.835 397.705 148.812 397.592 148.768 397.486C148.724 397.379 148.66 397.283 148.578 397.202C148.497 397.121 148.401 397.056 148.295 397.012C148.188 396.968 148.075 396.946 147.96 396.946H126.967C126.852 396.946 126.738 396.968 126.632 397.012C126.526 397.056 126.43 397.121 126.348 397.202C126.267 397.283 126.203 397.379 126.159 397.486C126.115 397.592 126.092 397.705 126.092 397.82V402.232H112.972V397.82C112.972 397.705 112.949 397.592 112.905 397.486C112.861 397.379 112.797 397.283 112.715 397.202C112.634 397.121 112.538 397.056 112.432 397.012C112.326 396.968 112.212 396.946 112.097 396.946H91.104C90.9891 396.946 90.8754 396.968 90.7693 397.012C90.6632 397.056 90.5667 397.121 90.4855 397.202C90.4043 397.283 90.3398 397.379 90.2959 397.486C90.2519 397.592 90.2293 397.705 90.2293 397.82V402.232H49.9929C44.4252 402.232 39.0856 404.444 35.1487 408.381C31.2118 412.317 29 417.657 29 423.225V432.717C29 438.285 31.2118 443.625 35.1487 447.561C39.0856 451.498 44.4253 453.71 49.9929 453.71H748.007C753.575 453.71 758.914 451.498 762.851 447.561C766.788 443.625 769 438.285 769 432.717V423.225C769 417.657 766.788 412.317 762.851 408.381C758.914 404.444 753.575 402.232 748.007 402.232Z" fill="#3F3D56"/>
<path d="M192.171 359.543C177.14 359.543 162.446 355.086 149.948 346.735C137.45 338.384 127.709 326.514 121.957 312.627C116.204 298.74 114.699 283.459 117.632 268.716C120.564 253.974 127.803 240.432 138.431 229.803C149.06 219.174 162.602 211.936 177.345 209.004C192.087 206.071 207.368 207.576 221.255 213.328C235.143 219.081 247.012 228.822 255.363 241.32C263.714 253.818 268.171 268.512 268.171 283.543C268.149 303.693 260.134 323.01 245.886 337.258C231.639 351.506 212.321 359.52 192.171 359.543ZM192.171 209.543C177.536 209.543 163.228 213.883 151.059 222.014C138.89 230.146 129.405 241.703 123.804 255.225C118.203 268.746 116.738 283.625 119.593 297.98C122.449 312.335 129.496 325.52 139.846 335.869C150.195 346.218 163.38 353.266 177.735 356.121C192.089 358.977 206.968 357.511 220.49 351.91C234.012 346.309 245.569 336.825 253.7 324.655C261.831 312.486 266.171 298.179 266.171 283.543C266.149 263.924 258.346 245.115 244.473 231.242C230.6 217.369 211.791 209.565 192.171 209.543V209.543Z" fill="#3F3D56"/>
<path d="M870.171 37.5432H615.171V39.5432H870.171V37.5432Z" fill="#3F3D56"/>
<path d="M1168.17 565.543H435.171V567.543H1168.17V565.543Z" fill="#3F3D56"/>
<path d="M476.671 657.543H221.672V659.543H476.671V657.543Z" fill="#3F3D56"/>
<path d="M528 555H500V583H528V555Z" fill="#22C55E"/>
<path d="M545 567H511V533H545V567ZM512.478 565.522H543.522V534.478H512.478V565.522Z" fill="#3F3D56"/>
<path d="M853 27H825V55H853V27Z" fill="#22C55E"/>
<path d="M870 39H836V5H870V39ZM837.478 37.5217H868.522V6.47826H837.478V37.5217Z" fill="#3F3D56"/>
<path d="M1135 555H1107V583H1135V555Z" fill="#22C55E"/>
<path d="M1152 567H1118V533H1152V567ZM1119.48 565.522H1150.52V534.478H1119.48V565.522Z" fill="#3F3D56"/>
<path d="M1086.17 236.958H1083.79V171.797C1083.79 166.844 1082.82 161.94 1080.92 157.364C1079.03 152.789 1076.25 148.631 1072.75 145.129C1069.24 141.627 1065.09 138.849 1060.51 136.954C1055.94 135.058 1051.03 134.083 1046.08 134.083H908.025C903.073 134.083 898.169 135.058 893.593 136.954C889.017 138.849 884.86 141.627 881.358 145.129C877.856 148.631 875.078 152.789 873.182 157.364C871.287 161.94 870.312 166.844 870.312 171.797V529.278C870.312 534.231 871.287 539.135 873.182 543.711C875.078 548.286 877.856 552.444 881.358 555.946C884.86 559.448 889.017 562.226 893.593 564.121C898.169 566.016 903.073 566.992 908.025 566.992H1046.08C1051.03 566.992 1055.94 566.016 1060.51 564.121C1065.09 562.226 1069.24 559.448 1072.75 555.946C1076.25 552.444 1079.03 548.286 1080.92 543.711C1082.82 539.135 1083.79 534.231 1083.79 529.278V283.341H1086.17V236.958Z" fill="#3F3D56"/>
<path d="M1075.76 174.013V530.973C1075.76 538.443 1072.8 545.607 1067.52 550.89C1062.23 556.173 1055.07 559.142 1047.6 559.143H908.881C901.412 559.142 894.248 556.173 888.967 550.89C883.686 545.607 880.72 538.443 880.721 530.973V174.013C880.722 166.545 883.689 159.383 888.97 154.102C894.251 148.821 901.413 145.854 908.881 145.853H925.711C924.883 147.885 924.567 150.089 924.792 152.271C925.016 154.454 925.773 156.548 926.997 158.368C928.221 160.189 929.874 161.681 931.811 162.712C933.747 163.744 935.907 164.283 938.101 164.283H1017.19C1019.39 164.283 1021.55 163.744 1023.48 162.713C1025.42 161.681 1027.07 160.189 1028.3 158.369C1029.52 156.548 1030.28 154.454 1030.5 152.271C1030.73 150.089 1030.41 147.885 1029.58 145.853H1047.6C1055.07 145.854 1062.23 148.821 1067.51 154.102C1072.79 159.383 1075.76 166.545 1075.76 174.013V174.013Z" fill="#22C55E"/>
<path d="M998.903 381.218H957.58V393.464H998.903V381.218Z" fill="#3F3D56"/>
<path d="M1048.86 285.875H907.621V291.123H1048.86V285.875Z" fill="#3F3D56"/>
<path d="M1048.86 302.494H907.621V307.742H1048.86V302.494Z" fill="#3F3D56"/>
<path d="M1048.86 319.114H907.621V324.362H1048.86V319.114Z" fill="#3F3D56"/>
<path d="M1048.86 335.733H907.621V340.981H1048.86V335.733Z" fill="#3F3D56"/>
<path d="M1048.86 352.352H907.621V357.601H1048.86V352.352Z" fill="#3F3D56"/>
<path d="M983.175 216.179H958.684V240.67H983.175V216.179Z" fill="#F2F2F2"/>
<path d="M968.059 222.303V252.043H997.799V222.303H968.059ZM996.509 250.753H969.349V223.593H996.509V250.753Z" fill="#3F3D56"/>
<path opacity="0.1" d="M1075.76 492.853V530.973C1075.76 538.443 1072.8 545.607 1067.52 550.89C1062.23 556.173 1055.07 559.142 1047.6 559.143H908.881C901.412 559.142 894.248 556.173 888.967 550.89C883.686 545.607 880.72 538.443 880.721 530.973V338.763L997.591 431.093L999.591 432.673L1021.33 449.843L1023.36 451.453L1075.76 492.853Z" fill="black"/>
<path d="M966.241 547.575C990.469 547.575 1010.11 527.934 1010.11 503.707C1010.11 479.479 990.469 459.839 966.241 459.839C942.014 459.839 922.374 479.479 922.374 503.707C922.374 527.934 942.014 547.575 966.241 547.575Z" fill="#F2F2F2"/>
<path d="M349.171 659.543C331.964 659.543 315.144 654.441 300.837 644.881C286.53 635.321 275.379 621.734 268.794 605.837C262.209 589.94 260.486 572.447 263.843 555.57C267.2 538.694 275.486 523.192 287.653 511.025C299.82 498.858 315.322 490.572 332.198 487.215C349.075 483.858 366.568 485.581 382.465 492.166C398.362 498.751 411.95 509.902 421.509 524.209C431.069 538.516 436.171 555.336 436.171 572.543C436.145 595.609 426.971 617.723 410.661 634.033C394.351 650.343 372.237 659.517 349.171 659.543ZM349.171 487.543C332.36 487.543 315.926 492.528 301.948 501.868C287.97 511.208 277.075 524.483 270.642 540.015C264.208 555.547 262.525 572.638 265.805 589.126C269.084 605.614 277.18 620.76 289.067 632.647C300.955 644.535 316.1 652.63 332.589 655.91C349.077 659.19 366.168 657.506 381.699 651.073C397.231 644.64 410.506 633.745 419.846 619.767C429.186 605.789 434.171 589.355 434.171 572.543C434.146 550.008 425.182 528.402 409.247 512.467C393.312 496.532 371.707 487.569 349.171 487.543V487.543Z" fill="#3F3D56"/>
<path d="M979.171 537.543C968.293 537.543 957.66 534.318 948.615 528.274C939.57 522.231 932.521 513.641 928.358 503.591C924.195 493.541 923.106 482.482 925.228 471.813C927.35 461.144 932.589 451.344 940.281 443.652C947.972 435.96 957.772 430.722 968.441 428.6C979.11 426.478 990.169 427.567 1000.22 431.73C1010.27 435.893 1018.86 442.942 1024.9 451.987C1030.95 461.032 1034.17 471.665 1034.17 482.543C1034.15 497.125 1028.36 511.105 1018.04 521.416C1007.73 531.727 993.753 537.527 979.171 537.543V537.543ZM979.171 429.543C968.689 429.543 958.442 432.652 949.726 438.475C941.01 444.299 934.217 452.577 930.206 462.261C926.194 471.945 925.145 482.602 927.19 492.883C929.235 503.164 934.283 512.608 941.695 520.02C949.107 527.432 958.551 532.48 968.832 534.525C979.113 536.57 989.769 535.52 999.454 531.509C1009.14 527.497 1017.42 520.704 1023.24 511.988C1029.06 503.273 1032.17 493.026 1032.17 482.543C1032.16 468.492 1026.57 455.02 1016.63 445.084C1006.69 435.148 993.223 429.559 979.171 429.543Z" fill="#3F3D56"/>
</g>
<defs>
<clipPath id="clip0_5_3">
<rect width="1139.17" height="654.543" fill="white" transform="translate(29 5)"/>
</clipPath>
</defs>
</svg>
